<?xml version="1.0" encoding="utf-8"?>
<svg viewBox="1.008 282.97 343.66 216.362" width="400px" height="250px" xmlns="http://www.w3.org/2000/svg"
     style="--roof-fill: #d7ecff; --roof-stroke: #b6d7f4; --house-fill: #274163; --house-stroke: #213650; --shadow-color: #142942; --light-color: #f5e38f; --highlight-color: #87a1c2;">
    <style>
        .roof {
        fill: var(--roof-fill);
        stroke: var(--roof-stroke);
        }

        .base {
        fill: var(--house-fill);
        stroke: var(--house-stroke);
        }

        .shadows {
        fill: var(--shadow-color);
        }

        .light {
        fill: var(--light-color);
        }

        .appearance {
        stroke: var(--highlight-color);
        filter: drop-shadow(-1px 1px 0 #142942) blur(0.6px);
        }

        .window {
        stroke-width: 2px;
        }

        .shadows-blured {
        filter: blur(10px);
        fill-opacity: 0.86;
        }

        .light-highlight {
        filter: blur(20px);
        stroke: none;
        }
    </style>

    <path class="base"
          d="M 194.543 499.047 L 319.618 497.197 L 319.618 382.315 L 338.738 381.748 L 275.798 287.416 L 268.066 287.377 L 194.543 371.647 L 20.103 368.972 L 20.103 498.255 L 194.543 499.047 Z">
    </path>
    <g class="shadows shadows-blured" transform="matrix(1, 0, 0, 1, -69.713951, -4.656169)">
        <path d="M 324.961 386.549 C 273.993 383.878 233.571 364.624 234.676 343.545 C 235.781 322.465 277.994 307.543 328.962 310.214 C 331.728 310.359 334.463 310.553 337.161 310.793 C 340.972 304.167 385.632 377.181 383.366 381.121 C 367.246 385.586 346.916 387.7 324.961 386.549 Z"/>
        <path d="M 254.815 442.968 C 254.815 466.962 242.015 488.618 221.462 503.988 L 89.121 503.308 L 89.722 371.317 C 94.265 369.097 99.035 367.135 103.997 365.455 L 202.56 370.637 C 233.876 385.417 254.815 412.28 254.815 442.968 Z"/>
        <path d="M 238.826 390.151 C 238.826 436.777 190.488 474.575 130.86 474.575 C 116.125 474.575 102.079 472.267 89.281 468.087 L 89.752 364.706 L 236.44 372.418 C 238.003 378.136 238.826 384.068 238.826 390.151 Z"/>
        <path d="M 128.88 437.463 C 114.964 437.463 101.663 435.404 89.447 431.655 L 89.752 364.706 L 234.026 372.291 C 222.885 409.641 180.038 437.463 128.88 437.463 Z"/>
    </g>
    <g class="appearance" transform="matrix(1, 0, 0, 1.121586, -79.058578, 28.328045)">
        <title>Appearance</title>
        <line x1="327.208" y1="269.338" x2="353.054" y2="268.69"/>
        <line x1="345.185" y1="280.645" x2="360.488" y2="279.963"/>
        <line x1="302.218" y1="296.162" x2="353.342" y2="295.089"/>
        <polyline points="338.463 302.31 361.48 301.041 378.464 301.625"/>
        <line x1="302.836" y1="315.144" x2="345.286" y2="314.135"/>
        <line x1="302.201" y1="328.654" x2="320.459" y2="327.519"/>
        <line x1="381.959" y1="320.909" x2="388.949" y2="320.111"/>
        <line x1="365.099" y1="325.779" x2="375.201" y2="324.944"/>
        <polyline points="378.29 339.62 384.165 337.906 387.753 340.037"/>
        <line x1="365.215" y1="354.151" x2="378.045" y2="354.151"/>
        <line x1="380.079" y1="360.345" x2="385.605" y2="359.042"/>
        <line x1="378.598" y1="372.23" x2="306.998" y2="374.511"/>
        <polyline points="296.879 348.913 303.199 347.199 318.274 346.229"/>
        <line x1="223.668" y1="334.193" x2="262.86" y2="333.847"/>
        <path d="M 285.679 356.942 L 299.465 356.566 L 320.441 356.759"/>
        <line x1="233.227" y1="351.593" x2="254.707" y2="350.979"/>
        <line x1="207.703" y1="372.086" x2="245.965" y2="372.163"/>
        <path d="M 146.231 347.034 C 146.047 348.755 185.126 347.997 185.126 347.997"/>
        <line x1="111.965" y1="330.216" x2="137.49" y2="330.557"/>
        <line x1="119.787" y1="354.648" x2="129.566" y2="354.882"/>
        <path transform="matrix(1, 0, 0, 1, 6.800333, 0.863455)" d="M 135.001 366.491 C 134.797 367.476 172.643 369.561 173.263 366.568"/>
    </g>
    <polygon class="base shadows" points="319.873 382.09 259.751 293.114 280.395 292.579 341.791 382.073">
    </polygon>
    <line class="base" x1="194.543" y1="498.022" x2="194.543" y2="368.35">
    </line>
    <g class="base window" transform="matrix(1, 0, 0, 1, -69.713951, -4.656169)">
        <path class="light" d="M 176.809 402.338 L 213.693 402.682 L 213.693 437.205 L 176.809 436.961 L 176.809 402.338 Z"/>
        <path class="light" d="M 313.638 436.221 L 352.581 435.39 L 352.581 401.431 L 313.638 402.099 L 313.638 436.221 Z"/>
        <line x1="333.295" y1="435.727" x2="333.295" y2="401.932"/>
        <line x1="313.638" y1="419.379" x2="352.581" y2="418.695"/>
        <line x1="176.809" y1="420.306" x2="213.693" y2="420.52"/>
        <line x1="195.659" y1="402.556" x2="195.659" y2="436.476"/>
        <ellipse class="light-highlight light" cx="193.386" cy="417.965" rx="42.363" ry="23.934"/>
        <ellipse class="light-highlight light" cx="340.173" cy="351.067" rx="37.748" ry="27.966"
                 transform="matrix(0.999391, -0.0349, 0.0349, 0.999391, -21.389328, 80.334574)"/>
    </g>
    <path class="roof"
          d="M 63.721 285.977 L 275.889 282.97 L 344.668 382.212 L 336.497 382.16 L 275.798 293.576 L 203.525 383.936 L 1.008 382.492 L 63.721 285.977 Z">
    </path>
</svg>