<?xml version="1.0" encoding="utf-8"?>
<svg width="288px" height="32" viewBox="0 0 288 32" xmlns="http://www.w3.org/2000/svg"
     style="--snow-color: #d7ecff;">
    <style>
        path { fill: var(--snow-color); }
    </style>
    <path d="M 15.454 31.974 C 15.554 26.774 13.154 31.874 12.054 28.974 C 12.954 27.474 15.754 28.174 15.154 25.774 C 10.854 29.674 10.854 22.974 8.554 24.574 C 8.854 25.474 10.854 28.674 8.354 28.274 C 7.254 23.774 6.354 28.774 4.454 26.974 C 5.354 24.774 6.554 24.774 3.754 23.574 C 3.754 20.474 7.254 24.874 8.354 22.274 C 4.754 21.474 4.254 20.074 6.154 16.874 C 3.854 16.174 4.454 19.274 2.854 19.974 C 0.554 18.074 4.754 16.974 0.054 16.474 C -0.346 14.774 1.554 15.274 2.754 15.074 C 0.954 8.374 4.154 15.474 6.154 15.074 C 4.254 12.174 4.654 10.474 8.254 9.774 C 7.354 8.274 6.154 9.174 4.854 9.674 C 1.254 8.474 7.554 8.474 4.454 4.974 C 5.354 3.574 6.454 5.474 7.254 6.074 C 10.454 0.074 8.154 7.074 9.654 8.274 C 9.454 2.674 19.854 7.474 12.354 3.574 C 11.954 0.374 14.654 4.474 16.154 -0.026 C 17.554 5.074 17.554 0.774 19.554 2.774 L 19.854 2.574 C 19.954 4.574 16.354 3.774 16.754 6.074 C 19.854 4.874 21.354 4.374 22.354 8.374 C 24.154 7.174 22.354 5.974 22.254 4.374 C 25.154 2.274 22.254 6.974 27.354 4.674 C 24.754 9.374 28.954 6.474 27.854 9.774 C 26.154 9.874 24.854 7.674 23.554 9.674 C 29.954 9.574 23.654 19.974 28.754 12.174 C 30.854 11.974 29.454 14.074 29.254 15.074 C 36.554 15.474 27.254 16.574 29.854 18.574 C 28.854 22.974 28.054 15.774 25.954 16.874 C 27.654 20.274 27.554 21.174 23.754 22.274 C 24.354 24.274 26.154 22.574 27.454 22.174 C 30.054 24.574 24.554 23.074 27.454 27.174 C 25.154 27.874 24.854 24.674 23.454 28.274 C 20.354 28.174 24.754 24.674 22.254 23.774 C 21.554 27.074 19.854 27.574 16.954 25.974 C 16.754 27.774 23.454 30.974 16.954 29.174 C 16.854 30.374 17.154 32.374 15.454 31.974 Z M 12.154 25.174 C 15.954 24.874 15.354 20.874 14.954 18.274 C 12.754 20.474 9.754 21.974 12.154 25.174 Z M 15.154 13.674 C 15.054 10.574 16.154 7.374 12.154 6.774 C 9.754 9.874 12.854 12.074 15.154 13.674 Z M 25.154 19.774 C 24.654 15.774 21.254 16.874 18.254 16.874 C 20.054 18.874 22.254 22.474 25.154 19.774 Z M 22.254 10.974 L 18.154 15.074 C 22.054 16.274 28.754 13.074 22.254 10.974 Z M 9.454 20.974 L 13.554 16.874 C 9.854 15.774 3.354 18.874 9.454 20.974 Z M 13.754 15.074 C 11.454 13.174 10.054 9.774 6.854 12.174 C 6.954 16.274 10.754 14.974 13.754 15.074 Z M 16.554 18.374 C 17.254 20.174 16.954 22.074 16.754 23.974 C 22.854 27.374 20.754 19.574 16.554 18.374 Z M 19.754 6.774 C 15.554 7.474 17.454 10.574 16.654 13.574 C 19.054 11.874 22.254 9.874 19.754 6.774 Z"/>
    <path d="M 62.435 20.019 C 56.635 21.819 63.335 22.019 61.235 24.419 C 58.235 22.719 58.435 23.619 58.535 26.719 C 55.335 29.419 58.035 17.719 55.135 22.919 C 53.035 22.719 54.335 19.219 51.135 18.819 C 51.035 20.219 50.235 20.919 48.835 19.919 C 48.235 22.819 49.435 23.019 50.935 25.119 C 50.352 25.691 49.418 25.691 48.835 25.119 C 48.935 27.519 57.435 32.619 48.835 28.719 C 49.535 32.819 46.535 32.719 47.035 28.819 C 45.835 29.219 43.035 31.819 43.235 29.119 C 45.535 27.719 49.635 25.619 45.135 25.319 C 45.735 23.419 47.935 22.919 47.035 19.919 C 45.835 21.119 44.835 20.119 45.035 18.719 C 42.535 19.619 42.335 20.819 41.835 22.919 C 37.635 19.819 40.435 24.719 38.735 27.119 C 36.635 27.419 37.835 24.519 37.535 23.119 C 34.335 25.719 32.735 23.119 36.635 21.619 C 29.135 16.419 37.235 20.819 39.735 19.819 C 35.735 16.419 42.735 19.619 44.235 17.219 C 42.935 16.719 42.735 15.419 44.135 14.819 C 42.735 12.119 36.035 15.719 39.635 12.219 C 37.035 11.419 29.335 15.419 36.635 10.419 C 32.835 9.119 34.235 6.319 37.535 8.919 C 37.835 7.519 36.635 4.719 38.735 5.019 C 40.835 5.319 37.935 9.819 40.335 10.619 C 41.935 6.119 41.935 13.219 45.035 13.319 C 44.935 11.619 45.835 11.219 47.035 12.119 C 48.235 10.019 42.735 4.419 47.035 7.119 C 47.635 4.319 44.735 4.519 43.135 2.819 C 43.135 0.419 45.935 2.719 47.035 3.219 C 46.435 -0.781 49.635 -0.781 48.835 3.319 C 57.135 -0.481 49.335 4.119 48.835 6.919 C 53.835 5.219 47.435 9.519 48.835 12.119 C 50.035 11.119 51.335 11.719 51.035 13.319 C 54.335 12.919 53.035 9.119 55.135 9.119 C 57.935 13.819 55.435 3.919 58.135 4.919 C 58.635 12.419 59.735 5.419 61.935 8.619 C 57.135 10.519 67.135 16.019 57.635 11.419 C 57.235 11.719 56.735 11.719 56.535 12.219 C 59.835 15.619 53.235 12.319 51.835 14.819 C 53.235 15.319 53.235 16.619 51.835 17.219 C 53.335 19.719 59.835 16.419 56.635 19.719 C 57.935 22.519 62.835 15.419 62.435 20.019 Z M 48.635 14.319 C 49.235 14.419 49.235 14.419 49.135 14.019 Z M 49.235 17.919 C 49.235 17.719 49.135 17.519 48.835 17.619 Z M 46.835 18.019 C 47.135 18.119 47.035 17.519 46.835 17.619 Z M 50.235 16.119 L 50.235 16.119 C 50.335 15.919 49.635 15.919 50.235 16.119 Z M 46.035 16.119 C 46.135 15.819 45.535 15.919 45.635 16.119 Z M 47.035 14.019 C 46.735 13.919 46.835 14.419 47.035 14.419 Z"/>
    <path d="M 79.185 31.914 C 72.785 28.614 84.685 24.414 75.585 25.914 C 75.685 23.314 80.485 24.014 78.785 20.614 C 77.085 22.014 76.185 21.114 76.485 18.914 C 73.285 19.614 74.785 22.414 73.985 24.514 C 70.585 24.314 74.385 17.414 69.485 25.014 C 67.545 25.76 65.525 24.127 65.848 22.074 C 65.927 21.569 66.148 21.098 66.485 20.714 C 68.785 19.114 74.285 21.314 68.885 17.914 C 69.985 14.514 73.185 20.614 75.385 17.514 C 73.385 16.614 73.485 15.214 75.585 14.414 C 74.285 11.714 66.085 17.414 70.185 13.114 C 74.285 8.814 65.885 13.414 65.685 9.914 C 66.785 3.214 70.585 8.414 72.585 10.714 C 72.685 9.314 71.885 6.914 73.885 7.214 C 74.985 9.414 73.085 12.114 76.385 13.014 C 76.185 10.914 77.085 9.914 78.885 11.414 C 79.785 8.614 77.485 8.014 75.485 6.914 C 75.285 4.114 77.885 6.514 79.285 6.914 C 71.985 -2.386 87.585 -1.486 80.685 5.414 C 80.185 7.714 81.985 6.214 83.185 5.514 C 86.885 6.914 78.785 8.314 80.685 11.514 C 82.385 10.014 83.785 10.614 83.285 13.014 C 86.385 12.114 86.285 2.214 87.185 10.614 C 92.485 1.214 99.085 12.314 88.185 12.214 C 89.085 13.114 91.685 13.314 90.585 15.014 C 87.985 15.014 86.685 11.814 84.185 14.414 C 86.285 15.414 86.485 16.414 84.485 17.514 C 86.285 19.814 88.085 17.214 90.185 16.714 C 92.185 18.014 89.185 18.814 88.185 19.614 C 89.185 20.614 89.585 20.614 90.785 19.914 C 91.477 19.839 92.175 19.979 92.785 20.314 C 96.585 26.414 89.685 26.614 87.285 21.114 C 86.185 29.814 86.485 19.614 83.285 18.914 C 83.685 21.714 82.685 21.514 80.685 20.714 C 79.085 23.914 85.785 24.014 83.785 26.314 C 82.685 26.514 81.785 25.314 80.685 24.914 C 81.185 27.614 84.985 31.614 79.185 31.914 Z M 80.585 13.414 C 80.585 15.114 81.885 14.014 81.585 12.814 Z M 80.685 18.414 L 81.585 18.914 C 81.985 17.614 80.385 16.814 80.685 18.414 Z M 81.485 15.914 C 82.385 16.414 82.785 16.714 83.385 15.914 C 82.811 15.527 82.059 15.527 81.485 15.914 Z M 76.885 15.514 L 76.585 15.814 C 77.185 17.414 78.585 15.114 76.885 15.514 Z M 78.185 17.814 L 78.185 18.914 C 79.085 18.714 78.885 18.214 78.885 17.514 Z M 78.285 14.014 L 78.885 14.314 C 78.985 13.614 78.985 13.314 78.285 13.014 Z"/>
    <path d="M 112.768 31.462 C 109.768 33.162 111.468 26.762 111.068 24.962 C 105.668 28.962 103.868 28.062 104.668 21.262 C 97.768 25.962 96.068 23.462 103.768 19.762 C 97.268 16.562 97.168 15.462 103.768 12.262 C 96.068 8.662 97.768 5.862 104.568 10.762 C 105.368 8.762 103.268 4.062 105.968 4.062 C 111.068 7.662 111.468 6.562 111.068 0.662 C 114.068 -1.438 112.368 5.162 112.768 7.062 C 125.168 -2.238 114.168 15.362 123.768 8.262 C 129.068 6.562 122.368 11.562 120.268 12.162 C 126.368 15.162 126.568 16.862 120.268 19.762 C 127.868 23.262 126.368 26.162 119.368 21.262 C 120.968 36.362 110.968 17.162 112.768 31.462 Z M 112.768 22.862 L 117.568 25.762 C 119.468 19.462 111.168 13.962 112.768 22.862 Z M 112.768 9.162 L 112.768 14.562 C 117.168 12.762 118.268 10.862 117.568 6.262 Z M 110.268 15.962 C 106.668 13.162 104.468 13.062 100.868 15.962 C 104.268 18.962 106.768 18.762 110.268 15.962 Z M 118.468 13.262 C 113.468 15.362 113.668 16.562 118.568 18.762 C 123.268 16.262 123.368 15.662 118.468 13.262 Z M 111.268 9.562 C 110.068 7.962 108.168 7.362 106.468 6.362 C 105.868 10.762 106.768 12.862 111.068 14.362 C 111.168 12.562 110.868 11.162 111.268 9.562 Z M 106.468 25.662 C 110.668 24.062 111.568 21.962 110.968 17.562 C 106.768 19.162 105.868 21.362 106.468 25.662 Z"/>
    <path d="M 130.391 7.743 C 135.091 9.043 134.291 10.243 135.291 5.043 C 137.291 8.143 136.991 13.043 143.191 14.543 C 146.591 8.243 132.991 -0.557 143.191 4.843 C 142.491 -0.757 145.991 -0.957 144.891 4.843 C 154.791 -0.257 141.891 8.243 144.991 14.543 C 152.291 13.743 152.791 -2.057 153.291 9.643 C 158.091 6.243 159.691 8.543 154.191 11.243 C 162.991 16.843 149.591 10.243 145.791 15.943 C 149.891 22.143 163.791 14.443 154.191 20.843 C 159.791 23.243 157.991 25.843 153.291 22.343 C 152.691 33.943 152.191 17.643 144.891 17.643 C 142.691 26.443 152.691 28.643 148.091 29.043 C 146.991 28.443 145.991 27.443 144.891 27.243 C 146.091 32.543 142.291 33.143 143.291 27.143 C 133.491 32.043 146.391 23.943 143.291 17.643 C 138.091 19.143 136.091 22.043 136.091 26.943 C 131.891 23.643 138.591 21.843 130.191 24.043 C 129.391 22.043 134.691 21.943 133.391 20.443 C 127.291 17.443 132.591 16.743 135.691 19.843 C 140.591 17.143 144.191 16.043 137.291 13.043 C 134.691 10.543 132.091 16.043 130.391 14.143 C 136.491 8.443 131.191 12.543 130.391 7.743 Z"/>
    <path d="M 176.447 0.176 C 177.049 1.53 177.156 3.052 176.747 4.476 C 181.847 2.176 176.147 6.776 177.047 8.376 C 183.647 3.176 175.647 11.276 176.947 14.576 C 180.047 13.676 180.947 11.376 181.347 8.476 C 183.547 6.776 182.747 10.076 182.247 11.476 C 184.747 11.376 183.147 7.276 185.647 7.776 C 185.947 9.876 186.147 9.476 187.947 8.276 C 191.847 6.876 188.647 10.676 186.647 11.076 C 190.747 14.376 184.347 11.476 183.247 13.076 C 191.247 16.376 179.847 13.376 177.747 16.176 C 179.647 19.276 192.047 15.676 183.147 19.376 C 184.247 20.676 190.647 18.376 186.647 21.376 C 187.647 22.276 190.947 22.776 189.547 24.576 C 188.147 26.376 185.647 21.076 185.647 24.576 C 183.147 25.076 184.647 21.076 182.347 20.876 C 182.447 22.276 184.047 24.776 181.547 24.376 C 181.347 21.976 178.747 16.976 176.947 18.276 C 175.747 21.476 184.047 29.176 176.747 24.076 C 176.847 25.576 181.147 30.376 176.947 27.976 C 177.747 33.076 174.347 33.176 175.147 28.076 C 174.247 28.376 173.747 29.376 172.947 28.076 C 172.147 26.776 175.647 25.976 175.147 23.976 C 168.247 29.176 176.847 21.276 175.147 17.776 C 171.647 17.376 168.547 30.376 169.647 20.976 C 167.947 21.076 166.847 27.776 166.247 22.876 C 164.947 23.276 162.347 25.976 162.047 23.576 C 161.747 21.176 166.747 21.676 164.047 20.676 C 163.647 18.276 166.547 20.176 167.547 19.976 C 168.547 19.776 167.747 19.076 166.747 18.776 C 163.347 16.576 168.947 17.076 170.247 17.976 C 171.547 18.876 172.947 16.676 174.347 16.276 C 172.947 15.576 171.647 13.876 170.047 14.576 C 166.647 16.176 163.447 14.276 168.647 13.076 C 167.747 11.676 161.247 14.176 165.247 11.176 C 164.347 9.976 160.647 9.376 162.647 7.776 C 168.847 11.776 164.447 3.476 169.547 11.576 C 168.847 1.976 171.447 14.676 175.147 14.776 C 176.647 11.276 168.147 3.176 175.147 8.476 C 176.147 6.376 171.047 5.076 173.847 3.676 C 176.847 6.176 173.447 -0.324 176.447 0.176 Z"/>
    <path d="M 207.406 31.9 C 207.706 26.5 202.406 30.8 207.106 25.9 C 205.706 25.7 204.806 27.4 203.306 27.3 C 202.006 24.5 207.706 25.1 207.106 22.4 C 202.606 20.7 200.906 18.7 201.606 25.1 C 199.506 26.8 199.806 23.1 199.806 21.7 C 199.006 22.4 198.306 27.4 197.406 23.1 C 196.306 23.4 193.906 25.6 194.006 23.3 C 198.806 20.4 191.706 19.2 199.206 20 C 191.706 15 199.306 18.9 201.806 18.3 C 201.106 10.6 201.706 14 196.006 14.7 C 196.206 12.4 201.906 10.6 195.806 12.4 C 195.106 10.4 197.206 10 194.006 8.9 C 193.706 5.3 197.906 10.5 197.406 7.6 C 200.106 5.9 198.306 9.8 199.906 10.3 C 199.906 9 199.406 5.1 201.506 6.6 C 200.906 13.1 202.506 11.2 207.106 9.4 C 207.406 7.3 204.206 7.2 203.106 5.8 C 202.006 4.4 205.906 5.9 207.106 6.3 C 207.206 5.2 202.306 1.6 207.106 3.4 C 206.906 -3.8 209.006 2.7 210.906 3.8 C 210.506 4.7 207.806 5.3 209.306 6 C 215.806 2.6 210.806 7.2 208.906 8.7 C 217.006 18.2 213.606 -1.9 216.006 10.2 C 218.706 3.3 216.706 10.8 221.106 7.4 C 223.806 9.3 217.706 9.7 220.306 11.1 C 220.506 14.3 217.806 10.4 216.806 11.9 C 226.306 19.8 210.306 7 214.706 19 C 220.106 16.1 221.006 16.5 217.306 20.4 C 219.006 19.2 222.006 19.5 219.306 21.5 C 223.106 22.9 221.706 25.7 218.506 23 C 217.306 28.4 216.706 20.1 215.706 21.9 C 214.706 23.7 216.406 25.8 214.606 25.5 C 214.106 20.2 214.306 19.5 209.206 22.4 C 207.206 23.7 211.606 25 212.706 26 C 213.106 28.7 210.206 26.3 209.006 25.7 C 207.806 25.1 214.106 29.6 208.706 28.7 C 209.006 29.9 209.206 32.3 207.406 31.9 Z M 204.206 12.7 C 206.806 14.8 207.506 14.3 207.106 11.1 C 205.991 11.303 204.972 11.865 204.206 12.7 Z M 207.106 17.3 C 206.184 17.94 205.215 18.508 204.206 19 C 206.506 21.7 207.606 20.5 207.106 17.3 Z M 209.606 15.9 C 211.606 17.3 213.206 18.1 212.806 15 C 212.306 13.5 210.606 15.7 209.606 15.9 Z M 203.506 17.5 C 204.406 16.8 205.206 16.7 205.906 15.8 C 203.706 13.8 202.006 14.8 203.506 17.5 Z M 208.806 17.4 C 208.731 18.504 208.798 19.613 209.006 20.7 C 212.306 20 211.306 18.4 208.806 17.4 Z M 211.606 12.8 C 209.406 10.1 208.406 11.5 208.906 14.4 Z"/>
    <path d="M 240.476 0.225 C 241.176 1.325 240.176 3.525 240.876 4.425 C 241.676 3.725 244.176 1.025 244.076 3.525 C 239.676 5.625 239.276 16.625 243.476 8.825 C 244.176 8.725 244.376 9.125 244.676 9.425 C 244.976 9.725 241.476 14.125 243.576 13.125 C 247.576 12.725 250.976 0.925 249.676 9.625 C 253.676 6.425 255.476 9.125 250.776 11.025 C 251.676 11.825 254.976 11.625 253.176 13.425 C 249.776 12.325 246.276 12.325 243.876 15.325 C 249.276 14.625 249.276 17.925 243.776 17.125 C 245.676 18.825 248.376 20.825 251.176 19.425 C 253.976 18.025 253.676 21.325 250.676 21.325 C 255.176 23.125 253.976 25.925 249.776 23.025 C 251.476 28.625 247.676 25.625 247.676 21.725 C 244.076 19.325 241.376 17.725 244.776 22.925 C 242.876 26.025 241.676 18.225 240.676 20.725 C 239.676 23.225 247.976 33.325 240.776 27.925 C 241.376 32.825 238.776 33.225 238.976 28.125 C 231.276 36.825 245.076 12.625 236.476 23.625 C 234.676 23.625 235.676 21.925 236.276 21.025 C 238.576 17.325 234.876 20.225 233.076 21.125 C 231.776 23.625 228.876 30.125 230.276 22.925 C 226.076 25.825 224.776 23.425 229.276 21.325 C 223.976 20.325 227.176 18.025 230.676 20.025 C 232.776 20.025 234.676 18.325 236.176 17.125 C 230.676 17.725 230.676 14.725 236.176 15.325 C 234.376 13.725 231.576 11.625 229.176 12.925 C 226.776 14.225 225.776 11.325 229.376 11.125 C 224.576 8.925 225.976 6.325 230.176 9.625 C 229.176 0.625 232.476 13.825 237.276 13.425 C 234.076 8.625 236.276 7.125 238.876 12.425 C 241.276 8.825 232.276 -1.175 238.976 4.525 C 239.276 3.125 238.276 0.125 240.476 0.225 Z"/>
    <path d="M 271.186 3.387 C 270.786 -0.713 273.586 -0.813 272.986 3.487 C 274.286 3.087 275.786 0.887 277.086 2.087 C 278.386 3.287 271.986 4.087 272.986 7.187 C 278.686 3.087 280.286 3.887 279.486 10.987 C 282.586 10.487 279.386 3.287 282.686 5.487 L 282.686 9.087 C 285.886 6.287 287.386 9.087 283.686 10.587 C 291.286 15.887 282.686 10.987 280.386 12.387 C 286.686 15.187 286.686 16.987 280.386 19.887 C 282.586 21.887 284.086 18.387 286.486 18.587 C 287.686 20.287 284.886 20.687 283.786 21.587 C 287.386 23.387 285.786 25.587 282.786 23.187 C 283.386 29.187 280.086 27.187 280.986 22.287 C 276.286 20.587 284.686 33.587 272.986 25.087 C 271.686 28.087 278.286 27.687 276.786 30.387 C 275.386 30.787 274.286 29.287 272.986 28.687 C 273.686 32.587 270.786 32.787 271.086 28.887 C 263.386 32.587 270.186 27.887 271.386 25.587 C 265.586 27.387 264.286 30.687 264.886 21.287 C 261.886 22.387 264.586 25.287 262.786 27.287 C 260.986 27.287 261.886 24.587 261.686 23.187 C 258.786 25.587 256.686 23.387 260.686 21.687 C 253.486 16.087 261.486 21.187 264.086 19.887 C 257.786 16.987 257.586 15.187 263.986 12.387 C 261.786 10.087 260.186 14.087 257.786 13.587 C 255.386 13.087 259.686 11.387 260.786 10.587 L 258.386 8.987 C 258.186 5.387 262.686 11.287 261.686 7.187 C 263.486 0.187 262.486 10.887 264.886 10.787 C 264.186 3.387 265.486 3.187 271.386 7.187 C 271.486 4.587 269.186 4.387 267.386 2.987 C 267.086 0.287 269.986 2.787 271.186 3.387 Z M 276.086 12.887 C 281.886 7.987 274.186 3.887 272.986 11.087 C 275.186 9.487 276.486 9.887 276.086 12.887 Z M 272.986 22.987 L 277.786 25.787 C 278.086 22.187 277.386 16.487 275.386 22.187 C 273.686 21.487 272.586 20.487 272.986 22.987 Z M 283.386 16.087 C 281.286 15.187 278.686 12.187 277.086 14.487 C 279.686 15.287 279.286 16.887 277.086 17.887 C 279.286 19.887 281.086 16.987 283.386 16.087 Z M 265.686 13.287 C 255.086 16.287 270.686 21.187 265.386 16.387 C 265.286 14.487 268.886 14.687 265.686 13.287 Z M 268.986 9.887 L 271.186 10.887 C 270.286 3.687 262.686 8.887 268.286 12.887 C 268.286 11.587 268.086 10.687 268.986 9.887 Z M 266.586 25.787 C 268.586 24.287 272.086 23.987 271.186 21.187 C 267.786 25.087 266.386 13.087 266.586 25.787 Z M 274.386 12.387 C 272.986 12.687 272.786 13.487 272.986 14.787 C 274.186 14.087 274.486 13.687 274.386 12.387 Z M 272.986 18.987 L 274.286 19.887 C 274.886 18.187 272.686 16.587 272.986 18.987 Z M 269.386 16.987 C 269.59 16.569 269.949 16.246 270.386 16.087 C 268.986 14.587 266.886 16.187 269.386 16.987 Z M 276.486 16.087 C 275.486 15.287 275.086 15.187 273.986 16.087 C 275.186 16.987 275.386 16.887 276.486 16.087 Z M 271.086 12.887 L 270.086 12.387 C 269.386 14.287 271.986 15.187 271.086 12.887 Z M 269.986 18.287 C 269.686 20.787 271.586 19.387 271.186 17.687 Z"/>
</svg>