<svg xmlns="http://www.w3.org/2000/svg" width="312" height="32" viewBox="0 0 310.6 32">
    <style>
        * {
            --snow-color: #d7ecff;
        }

        path {
            fill: var(--snow-color);
        }
    </style>
    <path d="M15.4,32c.1-5.2-2.3-.1-3.4-3,.9-1.5,3.7-.8,3.1-3.2-4.3,3.9-4.3-2.8-6.6-1.2.3.9,2.3,4.1-.2,3.7-1.1-4.5-2,.5-3.9-1.3.9-2.2,2.1-2.2-.7-3.4,0-3.1,3.5,1.3,4.6-1.3-3.6-.8-4.1-2.2-2.2-5.4-2.3-.7-1.7,2.4-3.3,3.1C.5,18.1,4.7,17,0,16.5c-.4-1.7,1.5-1.2,2.7-1.4-1.8-6.7,1.4.4,3.4,0-1.9-2.9-1.5-4.6,2.1-5.3-.9-1.5-2.1-.6-3.4-.1C1.2,8.5,7.5,8.5,4.4,5c.9-1.4,2,.5,2.8,1.1,3.2-6,.9,1,2.4,2.2-.2-5.6,10.2-.8,2.7-4.7-.4-3.2,2.3.9,3.8-3.6,1.4,5.1,1.4.8,3.4,2.8l.3-.2c.1,2-3.5,1.2-3.1,3.5,3.1-1.2,4.6-1.7,5.6,2.3,1.8-1.2,0-2.4-.1-4,2.9-2.1,0,2.6,5.1.3-2.6,4.7,1.6,1.8.5,5.1-1.7.1-3-2.1-4.3-.1,6.4-.1.1,10.3,5.2,2.5,2.1-.2.7,1.9.5,2.9,7.3.4-2,1.5.6,3.5-1,4.4-1.8-2.8-3.9-1.7,1.7,3.4,1.6,4.3-2.2,5.4.6,2,2.4.3,3.7-.1,2.6,2.4-2.9.9,0,5-2.3.7-2.6-2.5-4,1.1-3.1-.1,1.3-3.6-1.2-4.5-.7,3.3-2.4,3.8-5.3,2.2-.2,1.8,6.5,5,0,3.2C16.8,30.4,17.1,32.4,15.4,32Zm-3.3-6.8c3.8-.3,3.2-4.3,2.8-6.9C12.7,20.5,9.7,22,12.1,25.2Zm3-11.5c-.1-3.1,1-6.3-3-6.9C9.7,9.9,12.8,12.1,15.1,13.7Zm10,6.1c-.5-4-3.9-2.9-6.9-2.9C20,18.9,22.2,22.5,25.1,19.8ZM22.2,11l-4.1,4.1C22,16.3,28.7,13.1,22.2,11ZM9.4,21l4.1-4.1C9.8,15.8,3.3,18.9,9.4,21Zm4.3-5.9c-2.3-1.9-3.7-5.3-6.9-2.9C6.9,16.3,10.7,15,13.7,15.1Zm2.8,3.3c.7,1.8.4,3.7.2,5.6C22.8,27.4,20.7,19.6,16.5,18.4ZM19.7,6.8c-4.2.7-2.3,3.8-3.1,6.8C19,11.9,22.2,9.9,19.7,6.8Z"
          transform="translate(0.1 0)"/>
    <path d="M85.3,32c-6.4-3.3,5.5-7.5-3.6-6,.1-2.6,4.9-1.9,3.2-5.3-1.7,1.4-2.6.5-2.3-1.7-3.2.7-1.7,3.5-2.5,5.6-3.4-.2.4-7.1-4.5.5a2.7,2.7,0,0,1-3-4.3c2.3-1.6,7.8.6,2.4-2.8,1.1-3.4,4.3,2.7,6.5-.4-2-.9-1.9-2.3.2-3.1-1.3-2.7-9.5,3-5.4-1.3s-4.3.3-4.5-3.2c1.1-6.7,4.9-1.5,6.9.8C78.8,9.4,78,7,80,7.3c1.1,2.2-.8,4.9,2.5,5.8-.2-2.1.7-3.1,2.5-1.6.9-2.8-1.4-3.4-3.4-4.5-.2-2.8,2.4-.4,3.8,0-7.3-9.3,8.3-8.4,1.4-1.5-.5,2.3,1.3.8,2.5.1,3.7,1.4-4.4,2.8-2.5,6,1.7-1.5,3.1-.9,2.6,1.5,3.1-.9,3-10.8,3.9-2.4,5.3-9.4,11.9,1.7,1,1.6.9.9,3.5,1.1,2.4,2.8-2.6,0-3.9-3.2-6.4-.6,2.1,1,2.3,2,.3,3.1,1.8,2.3,3.6-.3,5.7-.8,2,1.3-1,2.1-2,2.9,1,1,1.4,1,2.6.3a3.4,3.4,0,0,1,2,.4c3.8,6.1-3.1,6.3-5.5.8-1.1,8.7-.8-1.5-4-2.2.4,2.8-.6,2.6-2.6,1.8-1.6,3.2,5.1,3.3,3.1,5.6-1.1.2-2-1-3.1-1.4C87.3,27.7,91.1,31.7,85.3,32Zm1.4-18.5c0,1.7,1.3.6,1-.6Zm.1,5,.9.5C88.1,17.7,86.5,16.9,86.8,18.5Zm.8-2.5c.9.5,1.3.8,1.9,0A1.7,1.7,0,0,0,87.6,16ZM83,15.6l-.3.3C83.3,17.5,84.7,15.2,83,15.6Zm1.3,2.3V19c.9-.2.7-.7.7-1.4Zm.1-3.8.6.3c.1-.7.1-1-.6-1.3Z"
          transform="translate(0.1 0)"/>
    <path d="M225.5,32c.3-5.4-5-1.1-.3-6-1.4-.2-2.3,1.5-3.8,1.4-1.3-2.8,4.4-2.2,3.8-4.9-4.5-1.7-6.2-3.7-5.5,2.7-2.1,1.7-1.8-2-1.8-3.4-.8.7-1.5,5.7-2.4,1.4-1.1.3-3.5,2.5-3.4.2,4.8-2.9-2.3-4.1,5.2-3.3-7.5-5,.1-1.1,2.6-1.7-.7-7.7-.1-4.3-5.8-3.6.2-2.3,5.9-4.1-.2-2.3-.7-2,1.4-2.4-1.8-3.5-.3-3.6,3.9,1.6,3.4-1.3,2.7-1.7.9,2.2,2.5,2.7,0-1.3-.5-5.2,1.6-3.7-.6,6.5,1,4.6,5.6,2.8.3-2.1-2.9-2.2-4-3.6s2.8.1,4,.5c.1-1.1-4.8-4.7,0-2.9-.2-7.2,1.9-.7,3.8.4-.4.9-3.1,1.5-1.6,2.2,6.5-3.4,1.5,1.2-.4,2.7,8.1,9.5,4.7-10.6,7.1,1.5,2.7-6.9.7.6,5.1-2.8,2.7,1.9-3.4,2.3-.8,3.7.2,3.2-2.5-.7-3.5.8,9.5,7.9-6.5-4.9-2.1,7.1,5.4-2.9,6.3-2.5,2.6,1.4,1.7-1.2,4.7-.9,2,1.1,3.8,1.4,2.4,4.2-.8,1.5-1.2,5.4-1.8-2.9-2.8-1.1s.7,3.9-1.1,3.6c-.5-5.3-.3-6-5.4-3.1-2,1.3,2.4,2.6,3.5,3.6.4,2.7-2.5.3-3.7-.3s5.1,3.9-.3,3C227.1,30,227.3,32.4,225.5,32Zm-3.2-19.2c2.6,2.1,3.3,1.6,2.9-1.6A5.2,5.2,0,0,0,222.3,12.8Zm2.9,4.6a21.9,21.9,0,0,1-2.9,1.7C224.6,21.8,225.7,20.6,225.2,17.4Zm2.5-1.4c2,1.4,3.6,2.2,3.2-.9C230.4,13.6,228.7,15.8,227.7,16Zm-6.1,1.6c.9-.7,1.7-.8,2.4-1.7C221.8,13.9,220.1,14.9,221.6,17.6Zm5.3-.1a12.9,12.9,0,0,0,.2,3.3C230.4,20.1,229.4,18.5,226.9,17.5Zm2.8-4.6c-2.2-2.7-3.2-1.3-2.7,1.6Z"
          transform="translate(0.1 0)"/>
    <path d="M65.5,20c-5.8,1.8.9,2-1.2,4.4-3-1.7-2.8-.8-2.7,2.3-3.2,2.7-.5-9-3.4-3.8-2.1-.2-.8-3.7-4-4.1-.1,1.4-.9,2.1-2.3,1.1-.6,2.9.6,3.1,2.1,5.2a1.5,1.5,0,0,1-2.1,0c.1,2.4,8.6,7.5,0,3.6.7,4.1-2.3,4-1.8.1-1.2.4-4,3-3.8.3,2.3-1.4,6.4-3.5,1.9-3.8.6-1.9,2.8-2.4,1.9-5.4-1.2,1.2-2.2.2-2-1.2-2.5.9-2.7,2.1-3.2,4.2-4.2-3.1-1.4,1.8-3.1,4.2-2.1.3-.9-2.6-1.2-4-3.2,2.6-4.8,0-.9-1.5-7.5-5.2.6-.8,3.1-1.8-4-3.4,3-.2,4.5-2.6-1.3-.5-1.5-1.8-.1-2.4-1.4-2.7-8.1.9-4.5-2.6-2.6-.8-10.3,3.2-3-1.8-3.8-1.3-2.4-4.1.9-1.5.3-1.4-.9-4.2,1.2-3.9s-.8,4.8,1.6,5.6c1.6-4.5,1.6,2.6,4.7,2.7-.1-1.7.8-2.1,2-1.2,1.2-2.1-4.3-7.7,0-5,.6-2.8-2.3-2.6-3.9-4.3,0-2.4,2.8-.1,3.9.4-.6-4,2.6-4,1.8.1,8.3-3.8.5.8,0,3.6,5-1.7-1.4,2.6,0,5.2,1.2-1,2.5-.4,2.2,1.2,3.3-.4,2-4.2,4.1-4.2,2.8,4.7.3-5.2,3-4.2.5,7.5,1.6.5,3.8,3.7-4.8,1.9,5.2,7.4-4.3,2.8-.4.3-.9.3-1.1.8,3.3,3.4-3.3.1-4.7,2.6,1.4.5,1.4,1.8,0,2.4,1.5,2.5,8-.8,4.8,2.5C61,22.5,65.9,15.4,65.5,20ZM51.7,14.3c.6.1.6.1.5-.3Zm.6,3.6c0-.2-.1-.4-.4-.3Zm-2.4.1c.3.1.2-.5,0-.4Zm3.4-1.9h0C53.4,15.9,52.7,15.9,53.3,16.1Zm-4.2,0c.1-.3-.5-.2-.4,0Zm1-2.1c-.3-.1-.2.4,0,.4Z"
          transform="translate(0.1 0)"/>
    <path d="M261.5,0c.7,1.1-.3,3.3.4,4.2.8-.7,3.3-3.4,3.2-.9-4.4,2.1-4.8,13.1-.6,5.3.7-.1.9.3,1.2.6s-3.2,4.7-1.1,3.7c4-.4,7.4-12.2,6.1-3.5,4-3.2,5.8-.5,1.1,1.4.9.8,4.2.6,2.4,2.4-3.4-1.1-6.9-1.1-9.3,1.9,5.4-.7,5.4,2.6-.1,1.8,1.9,1.7,4.6,3.7,7.4,2.3s2.5,1.9-.5,1.9c4.5,1.8,3.3,4.6-.9,1.7,1.7,5.6-2.1,2.6-2.1-1.3-3.6-2.4-6.3-4-2.9,1.2-1.9,3.1-3.1-4.7-4.1-2.2s7.3,12.6.1,7.2c.6,4.9-2,5.3-1.8.2-7.7,8.7,6.1-15.5-2.5-4.5-1.8,0-.8-1.7-.2-2.6,2.3-3.7-1.4-.8-3.2.1-1.3,2.5-4.2,9-2.8,1.8-4.2,2.9-5.5.5-1-1.6-5.3-1-2.1-3.3,1.4-1.3,2.1,0,4-1.7,5.5-2.9-5.5.6-5.5-2.4,0-1.8-1.8-1.6-4.6-3.7-7-2.4s-3.4-1.6.2-1.8c-4.8-2.2-3.4-4.8.8-1.5-1-9,2.3,4.2,7.1,3.8-3.2-4.8-1-6.3,1.6-1,2.4-3.6-6.6-13.6.1-7.9C260.3,2.9,259.3-.1,261.5,0Z"
          transform="translate(0.1 0)"/>
    <path d="M191.5,0a6.3,6.3,0,0,1,.3,4.3c5.1-2.3-.6,2.3.3,3.9,6.6-5.2-1.4,2.9-.1,6.2,3.1-.9,4-3.2,4.4-6.1,2.2-1.7,1.4,1.6.9,3,2.5-.1.9-4.2,3.4-3.7.3,2.1.5,1.7,2.3.5,3.9-1.4.7,2.4-1.3,2.8,4.1,3.3-2.3.4-3.4,2,8,3.3-3.4.3-5.5,3.1,1.9,3.1,14.3-.5,5.4,3.2,1.1,1.3,7.5-1,3.5,2,1,.9,4.3,1.4,2.9,3.2s-3.9-3.5-3.9,0c-2.5.5-1-3.5-3.3-3.7.1,1.4,1.7,3.9-.8,3.5-.2-2.4-2.8-7.4-4.6-6.1-1.2,3.2,7.1,10.9-.2,5.8.1,1.5,4.4,6.3.2,3.9.8,5.1-2.6,5.2-1.8.1-.9.3-1.4,1.3-2.2,0s2.7-2.1,2.2-4.1c-6.9,5.2,1.7-2.7,0-6.2-3.5-.4-6.6,12.6-5.5,3.2-1.7.1-2.8,6.8-3.4,1.9-1.3.4-3.9,3.1-4.2.7s4.7-1.9,2-2.9c-.4-2.4,2.5-.5,3.5-.7s.2-.9-.8-1.2c-3.4-2.2,2.2-1.7,3.5-.8s2.7-1.3,4.1-1.7c-1.4-.7-2.7-2.4-4.3-1.7-3.4,1.6-6.6-.3-1.4-1.5-.9-1.4-7.4,1.1-3.4-1.9-.9-1.2-4.6-1.8-2.6-3.4,6.2,4,1.8-4.3,6.9,3.8-.7-9.6,1.9,3.1,5.6,3.2,1.5-3.5-7-11.6,0-6.3,1-2.1-4.1-3.4-1.3-4.8C191.9,6,188.5-.5,191.5,0Z"
          transform="translate(0.1 0)"/>
    <path d="M295,3.3c-.4-4.1,2.4-4.2,1.8.1,1.3-.4,2.8-2.6,4.1-1.4s-5.1,2-4.1,5.1c5.7-4.1,7.3-3.3,6.5,3.8,3.1-.5-.1-7.7,3.2-5.5V9c3.2-2.8,4.7,0,1,1.5,7.6,5.3-1,.4-3.3,1.8,6.3,2.8,6.3,4.6,0,7.5,2.2,2,3.7-1.5,6.1-1.3,1.2,1.7-1.6,2.1-2.7,3,3.6,1.8,2,4-1,1.6.6,6-2.7,4-1.8-.9-4.7-1.7,3.7,11.3-8,2.8-1.3,3,5.3,2.6,3.8,5.3-1.4.4-2.5-1.1-3.8-1.7.7,3.9-2.2,4.1-1.9.2-7.7,3.7-.9-1,.3-3.3-5.8,1.8-7.1,5.1-6.5-4.3-3,1.1-.3,4-2.1,6-1.8,0-.9-2.7-1.1-4.1-2.9,2.4-5,.2-1-1.5-7.2-5.6.8-.5,3.4-1.8-6.3-2.9-6.5-4.7-.1-7.5-2.2-2.3-3.8,1.7-6.2,1.2s1.9-2.2,3-3l-2.4-1.6c-.2-3.6,4.3,2.3,3.3-1.8,1.8-7,.8,3.7,3.2,3.6-.7-7.4.6-7.6,6.5-3.6.1-2.6-2.2-2.8-4-4.2C290.9.2,293.8,2.7,295,3.3Zm4.9,9.5c5.8-4.9-1.9-9-3.1-1.8C299,9.4,300.3,9.8,299.9,12.8Zm-3.1,10.1,4.8,2.8c.3-3.6-.4-9.3-2.4-3.6C297.5,21.4,296.4,20.4,296.8,22.9ZM307.2,16c-2.1-.9-4.7-3.9-6.3-1.6,2.6.8,2.2,2.4,0,3.4C303.1,19.8,304.9,16.9,307.2,16Zm-17.7-2.8c-10.6,3,5,7.9-.3,3.1C289.1,14.4,292.7,14.6,289.5,13.2Zm3.3-3.4,2.2,1c-.9-7.2-8.5-2-2.9,2C292.1,11.5,291.9,10.6,292.8,9.8Zm-2.4,15.9c2-1.5,5.5-1.8,4.6-4.6C291.6,25,290.2,13,290.4,25.7Zm7.8-13.4c-1.4.3-1.6,1.1-1.4,2.4C298,14,298.3,13.6,298.2,12.3Zm-1.4,6.6,1.3.9C298.7,18.1,296.5,16.5,296.8,18.9Zm-3.6-2a1.8,1.8,0,0,1,1-.9C292.8,14.5,290.7,16.1,293.2,16.9Zm7.1-.9c-1-.8-1.4-.9-2.5,0C299,16.9,299.2,16.8,300.3,16Zm-5.4-3.2-1-.5C293.2,14.2,295.8,15.1,294.9,12.8Zm-1.1,5.4c-.3,2.5,1.6,1.1,1.2-.6Z"
          transform="translate(0.1 0)"/>
    <path d="M121.7,31.5c-3,1.7-1.3-4.7-1.7-6.5-5.4,4-7.2,3.1-6.4-3.7-6.9,4.7-8.6,2.2-.9-1.5-6.5-3.2-6.6-4.3,0-7.5-7.7-3.6-6-6.4.8-1.5.8-2-1.3-6.7,1.4-6.7,5.1,3.6,5.5,2.5,5.1-3.4,3-2.1,1.3,4.5,1.7,6.4,12.4-9.3,1.4,8.3,11,1.2,5.3-1.7-1.4,3.3-3.5,3.9,6.1,3,6.3,4.7,0,7.6,7.6,3.5,6.1,6.4-.9,1.5C129.9,36.4,119.9,17.2,121.7,31.5Zm0-8.6,4.8,2.9C128.4,19.5,120.1,14,121.7,22.9Zm0-13.7v5.4c4.4-1.8,5.5-3.7,4.8-8.3ZM119.2,16c-3.6-2.8-5.8-2.9-9.4,0C113.2,19,115.7,18.8,119.2,16Zm8.2-2.7c-5,2.1-4.8,3.3.1,5.5C132.2,16.3,132.3,15.7,127.4,13.3Zm-7.2-3.7c-1.2-1.6-3.1-2.2-4.8-3.2-.6,4.4.3,6.5,4.6,8C120.1,12.6,119.8,11.2,120.2,9.6Zm-4.8,16.1c4.2-1.6,5.1-3.7,4.5-8.1C115.7,19.2,114.8,21.4,115.4,25.7Z"
          transform="translate(0.1 0)"/>
    <path d="M142.4,7.8c4.7,1.3,3.9,2.5,4.9-2.7,2,3.1,1.7,8,7.9,9.5,3.4-6.3-10.2-15.1,0-9.7-.7-5.6,2.8-5.8,1.7,0,9.9-5.1-3,3.4.1,9.7,7.3-.8,7.8-16.6,8.3-4.9,4.8-3.4,6.4-1.1.9,1.6,8.8,5.6-4.6-1-8.4,4.7,4.1,6.2,18-1.5,8.4,4.9,5.6,2.4,3.8,5-.9,1.5-.6,11.6-1.1-4.7-8.4-4.7-2.2,8.8,7.8,11,3.2,11.4-1.1-.6-2.1-1.6-3.2-1.8,1.2,5.3-2.6,5.9-1.6-.1-9.8,4.9,3.1-3.2,0-9.5-5.2,1.5-7.2,4.4-7.2,9.3-4.2-3.3,2.5-5.1-5.9-2.9-.8-2,4.5-2.1,3.2-3.6-6.1-3-.8-3.7,2.3-.6,4.9-2.7,8.5-3.8,1.6-6.8-2.6-2.5-5.2,3-6.9,1.1C148.5,8.5,143.2,12.6,142.4,7.8Z"
          transform="translate(0.1 0)"/>
</svg>